<svg xmlns="http://www.w3.org/2000/svg" viewBox="0 0 100 100" width="100" height="100">
  <defs>
    <linearGradient id="cppGrad" x1="0%" y1="0%" x2="100%" y2="100%">
      <stop offset="0%" stop-color="#00599C" />
      <stop offset="100%" stop-color="#004482" />
    </linearGradient>
    <linearGradient id="plusGrad" x1="0%" y1="0%" x2="100%" y2="100%">
      <stop offset="0%" stop-color="#659AD2" />
      <stop offset="100%" stop-color="#00599C" />
    </linearGradient>
  </defs>
  <rect width="100" height="100" rx="22" fill="#0b1a30" />
  
  <!-- C Shape -->
  <path d="M 52 28 C 38 28 26 38 26 50 C 26 62 38 72 52 72 C 58 72 63 70 67 66 L 58 57 C 56 59 54 60 51 60 C 44 60 40 55 40 50 C 40 45 44 40 51 40 C 54 40 56 41 58 43 L 67 34 C 63 30 58 28 52 28 Z" fill="#659AD2" />
  
  <!-- First Plus -->
  <polygon points="69,45 69,41 73,41 73,45 77,45 77,49 73,49 73,53 69,53 69,49 65,49 65,45" fill="#0088EE" />
  
  <!-- Second Plus -->
  <polygon points="81,45 81,41 85,41 85,45 89,45 89,49 85,49 85,53 81,53 81,49 77,49 77,45" fill="#0088EE" />
</svg>
